<svg width="168" height="447" viewBox="0 0 168 447" fill="none" xmlns="http://www.w3.org/2000/svg">
<g clip-path="url(#clip0_3_3)">
<path d="M140.2 191.414C140.45 197.057 141.063 202.7 141.09 208.351C141.101 210.765 141.409 213.159 141.482 215.571C141.54 217.485 141.682 220.139 140.166 221.571C138.289 223.341 141.122 226.166 142.994 224.399C146.975 220.644 145.161 213.985 145.094 209.206C145.008 203.265 144.466 197.351 144.203 191.415C144.089 188.851 140.089 188.837 140.203 191.415L140.2 191.414Z" fill="#4DAC6E"/>
<path d="M57.985 221.57C56.541 220.236 56.475 218.086 56.508 216.239C56.553 213.801 56.961 211.394 57.188 208.972C57.45 206.181 57.317 203.34 57.367 200.539C57.429 197.044 57.51 193.55 57.531 190.054C57.547 187.48 53.547 187.477 53.531 190.054C53.508 193.78 53.417 197.504 53.355 201.229C53.306 204.108 53.412 207 53.095 209.866C52.583 214.495 51.265 220.804 55.157 224.398C57.045 226.143 59.881 223.321 57.985 221.57Z" fill="#4DAC6E"/>
<path d="M56.151 136.754C55.947 132.26 55.677 127.77 55.341 123.284C55.3286 122.757 55.1138 122.256 54.7414 121.884C54.369 121.511 53.8675 121.296 53.341 121.284C52.8119 121.288 52.3056 121.5 51.9314 121.874C51.5572 122.249 51.3452 122.755 51.341 123.284C51.6743 127.77 51.9443 132.26 52.151 136.754C52.1617 137.281 52.3759 137.784 52.7487 138.156C53.1214 138.529 53.6239 138.743 54.151 138.754C54.6798 138.749 55.1855 138.536 55.5595 138.162C55.9334 137.789 56.1458 137.283 56.151 136.754Z" fill="#4DAC6E"/>
<path d="M139.208 224.961C138.636 248.414 137.987 271.865 137.261 295.314C136.515 319.484 135.686 343.651 134.773 367.814C134.281 380.695 133.757 393.574 133.2 406.453L134.668 404.525C129.381 405.933 123.939 406.675 118.468 406.735C116.282 406.723 114.099 406.553 111.938 406.224C110.043 406.027 108.203 405.469 106.517 404.581L107.507 406.308C106.914 387.575 106.252 368.846 105.522 350.122C104.749 330.752 103.849 311.388 102.822 292.03C102.234 281.197 101.585 270.368 100.876 259.542C100.707 256.986 96.706 256.967 96.876 259.542C98.47 283.705 99.716 307.89 100.776 332.082C101.804 355.63 102.679 379.184 103.401 402.745C103.446 404.145 103.039 406.662 104.101 407.722C105.038 408.463 106.128 408.988 107.291 409.259C110.017 410.05 112.828 410.508 115.664 410.621C122.457 411.071 129.156 409.957 135.743 408.382C136.162 408.26 136.531 408.006 136.795 407.659C137.059 407.312 137.206 406.889 137.212 406.453C138.232 383.016 139.14 359.574 139.937 336.127C140.775 311.96 141.531 287.79 142.206 263.619C142.567 250.734 142.905 237.848 143.22 224.961C143.283 222.386 139.283 222.387 139.22 224.961H139.208Z" fill="#4DAC6E"/>
<path d="M96.5 259.542C95.2333 278.781 94.1583 298.033 93.275 317.3C92.3677 336.514 91.5813 355.733 90.916 374.958C90.544 385.41 90.1937 395.862 89.865 406.314L90.856 404.587C89.2307 405.447 87.4577 405.994 85.63 406.197C83.4062 406.546 81.1591 406.728 78.908 406.739C73.4342 406.678 67.9894 405.934 62.7 404.524L64.168 406.452C63.14 382.841 62.183 359.228 61.297 335.611C60.3857 311.344 59.5583 287.075 58.815 262.803C58.4217 249.803 58.0643 236.8 57.743 223.795C57.681 221.225 53.68 221.215 53.743 223.795C54.3197 247.421 55.0173 271.044 55.836 294.663C56.6547 318.93 57.5547 343.196 58.536 367.463C59.058 380.463 59.602 393.459 60.168 406.452C60.1757 406.888 60.3223 407.31 60.5865 407.657C60.8507 408.004 61.2187 408.258 61.637 408.381C67.5287 409.953 73.6023 410.738 79.7 410.718C82.369 410.657 85.0285 410.376 87.651 409.876C88.6911 409.681 89.7142 409.404 90.711 409.048C91.743 408.667 93.235 408.178 93.697 407.081C94.197 405.89 93.942 404.032 93.983 402.748C94.0283 401.328 94.074 399.908 94.12 398.489C94.214 395.622 94.3087 392.756 94.404 389.889C94.604 383.982 94.8093 378.075 95.02 372.168C95.8867 348.145 96.9227 324.129 98.128 300.119C98.83 286.586 99.622 273.06 100.504 259.541C100.674 256.971 96.673 256.981 96.504 259.541L96.5 259.542Z" fill="#4DAC6E"/>
<path d="M86.619 409.824C87.3977 412.202 87.8078 414.686 87.835 417.188C87.999 419.653 88.486 422.655 87.566 425.011C87.082 426.036 86.2793 426.876 85.278 427.406C83.9828 428.25 82.6143 428.976 81.189 429.574C79.817 430.147 78.382 430.505 77.06 431.206C75.6394 432.002 74.3284 432.979 73.16 434.113C70.66 436.437 68.493 438.797 65.327 440.242C62.2146 441.65 58.8109 442.295 55.399 442.123C52.336 441.97 48.69 441.142 46.899 438.395C45.108 435.648 46.599 432.495 48.554 430.283C51.337 427.131 54.581 424.333 57.554 421.355C60.57 418.329 63.505 415.222 66.206 411.909C66.5673 411.527 66.7687 411.021 66.7687 410.495C66.7687 409.969 66.5673 409.463 66.206 409.081C65.829 408.71 65.3211 408.502 64.792 408.502C64.2629 408.502 63.755 408.71 63.378 409.081C60.678 412.394 57.741 415.501 54.725 418.526C51.757 421.505 48.513 424.303 45.725 427.455C43.225 430.286 41.325 434.085 42.351 437.936C43.351 441.7 46.705 444.219 50.29 445.301C54.2152 446.375 58.3479 446.442 62.3059 445.496C66.2638 444.55 69.9193 442.621 72.934 439.887C75.513 437.5 77.634 435.026 81.052 433.874C84.034 432.874 87.541 431.296 89.724 428.952C92.395 426.083 92.054 421.969 91.889 418.352C91.748 415.234 91.636 411.691 90.468 408.763C90.3136 408.26 89.9728 407.835 89.5154 407.575C89.0579 407.314 88.5184 407.239 88.007 407.363C87.4968 407.506 87.0636 407.845 86.8016 408.306C86.5395 408.767 86.4696 409.312 86.607 409.824H86.619Z" fill="#4DAC6E"/>
<path d="M84.731 102.52C94.065 106.665 104.087 106.05 113.771 103.456C116.255 102.79 115.201 98.931 112.708 99.599C104.183 101.882 95.023 102.74 86.75 99.066C86.2884 98.8145 85.7483 98.7486 85.2398 98.8818C84.7313 99.0151 84.2929 99.3374 84.014 99.783C83.7502 100.242 83.6776 100.786 83.8117 101.298C83.9459 101.811 84.2761 102.249 84.731 102.52Z" fill="#4DAC6E"/>
<path d="M57.543 224.081C79.189 224.153 100.835 224.204 122.481 224.235L141.581 224.276C144.155 224.282 144.159 220.282 141.581 220.276C118.74 220.225 95.8987 220.174 73.056 220.125C67.8847 220.112 62.7133 220.098 57.542 220.081C54.968 220.072 54.965 224.072 57.543 224.081Z" fill="#4DAC6E"/>
<path d="M107.334 408.76C106.27 411.427 106.134 414.614 105.958 417.452C105.768 420.552 105.414 423.952 106.706 426.865C108.056 429.913 111.531 431.677 114.437 432.957C116.008 433.506 117.55 434.134 119.057 434.84C120.464 435.714 121.752 436.766 122.888 437.971C124.222 439.345 125.652 440.623 127.167 441.795C128.822 442.959 130.629 443.891 132.537 444.565C136.406 446.009 140.574 446.467 144.664 445.897C148.464 445.364 152.227 443.761 154.356 440.414C156.485 437.067 155.9 432.989 153.845 429.775C152.578 427.964 151.11 426.302 149.47 424.82C147.776 423.154 146.07 421.499 144.385 419.826C140.879 416.423 137.555 412.836 134.428 409.081C134.051 408.709 133.543 408.501 133.014 408.501C132.484 408.501 131.976 408.709 131.599 409.081C131.235 409.462 131.032 409.968 131.032 410.495C131.032 411.022 131.235 411.528 131.599 411.909C136.436 417.841 142.022 423.083 147.457 428.452C149.557 430.529 152.233 433.258 151.677 436.517C151.126 439.75 147.696 441.282 144.832 441.841C141.345 442.458 137.759 442.168 134.416 441C131.318 439.891 128.524 438.068 126.26 435.679C123.939 433.401 121.605 431.317 118.479 430.233C115.797 429.459 113.302 428.143 111.149 426.367C109.063 424.408 109.801 420.477 109.931 417.937C109.916 415.183 110.341 412.445 111.191 409.826C111.328 409.314 111.258 408.769 110.996 408.308C110.734 407.848 110.301 407.509 109.791 407.365C109.28 407.237 108.739 407.311 108.28 407.572C107.822 407.833 107.482 408.26 107.331 408.765L107.334 408.76Z" fill="#4DAC6E"/>
<path d="M72.818 99.53C73.718 99.216 74.588 98.764 75.453 98.368C76.7863 97.7573 78.1197 97.142 79.453 96.522C80.499 96.0367 81.5453 95.552 82.592 95.068C82.7 95.018 82.811 94.968 82.917 94.919C83.007 94.875 83.189 94.8 82.757 94.985C82.24 95.206 82.7 95.016 82.833 94.963C83.09 94.863 83.347 94.757 83.595 94.637C84.6365 94.1482 85.5011 93.349 86.07 92.349C86.5186 91.4242 86.8025 90.4283 86.909 89.406C87.143 87.892 87.403 86.386 87.541 84.859C87.5389 84.3292 87.3275 83.8217 86.9529 83.4471C86.5783 83.0725 86.0708 82.8611 85.541 82.859C85.0148 82.8724 84.5138 83.0874 84.1416 83.4596C83.7694 83.8318 83.5544 84.3328 83.541 84.859C83.3662 86.7158 83.0561 88.5574 82.613 90.369C82.553 90.617 82.807 90.069 82.648 90.269C82.5963 90.3459 82.5508 90.4268 82.512 90.511C82.29 90.901 82.677 90.406 82.43 90.618C82.3522 90.6846 82.2784 90.7557 82.209 90.831C82.425 90.585 82.343 90.747 82.223 90.819C82.123 90.881 82.023 90.947 81.923 91.007C81.885 91.028 81.471 91.237 81.623 91.166C81.476 91.232 80.923 91.454 80.599 91.603C78.372 92.626 76.152 93.667 73.925 94.69C73.347 94.9567 72.7683 95.2203 72.189 95.481C72.005 95.564 71.821 95.645 71.637 95.727C71.183 95.927 72.13 95.543 71.756 95.674C71.2511 95.8257 70.8239 96.1659 70.5632 96.6242C70.3025 97.0824 70.2283 97.6235 70.356 98.135C70.5004 98.6444 70.8392 99.0767 71.2994 99.3386C71.7596 99.6005 72.3043 99.671 72.816 99.535L72.818 99.53Z" fill="#4DAC6E"/>
<path d="M109.5 84.693C109.629 86.118 109.835 87.532 110.069 88.943C110.156 89.6847 110.292 90.4197 110.478 91.143C110.749 92.0934 111.27 92.9537 111.987 93.634C112.391 94.0054 112.843 94.3215 113.33 94.574C113.656 94.7359 113.989 94.8811 114.33 95.009C114.987 95.261 113.87 94.785 114.121 94.909C116.098 95.925 118.153 96.809 120.162 97.762C121.117 98.214 122.062 98.682 123.039 99.09C123.292 99.1598 123.557 99.1789 123.818 99.1463C124.079 99.1137 124.331 99.03 124.559 98.9C124.788 98.77 124.988 98.5962 125.15 98.3886C125.311 98.1809 125.43 97.9436 125.499 97.69C125.623 97.1788 125.548 96.6393 125.287 96.182C125.027 95.7248 124.602 95.3842 124.099 95.23C125.099 95.648 124.158 95.239 123.924 95.13L122.634 94.522C121.47 93.972 120.306 93.421 119.143 92.869C118.243 92.443 117.343 92.016 116.443 91.595C116.343 91.549 116.248 91.503 116.15 91.459L116.075 91.425C115.93 91.361 115.738 91.281 115.591 91.225C115.543 91.205 115.22 91.061 115.51 91.198C115.323 91.109 115.144 91.01 114.966 90.906C114.911 90.874 114.619 90.678 114.842 90.836C115.042 90.976 114.842 90.836 114.81 90.803C114.666 90.66 114.416 90.33 114.66 90.696C114.552 90.534 114.468 90.355 114.36 90.196C114.241 90.019 114.46 90.364 114.434 90.381C114.434 90.381 114.315 90.032 114.31 90.016C114.261 89.849 114.221 89.679 114.185 89.509C114.101 89.109 114.047 88.703 113.985 88.299C113.785 86.981 113.61 85.991 113.493 84.691C113.482 84.1641 113.267 83.6619 112.895 83.2892C112.522 82.9165 112.02 82.7022 111.493 82.691C110.964 82.697 110.459 82.9096 110.085 83.2834C109.712 83.6572 109.499 84.1624 109.493 84.691L109.5 84.693Z" fill="#4DAC6E"/>
<path d="M70.491 46.575C69.483 45.6711 68.232 45.083 66.893 44.8833C65.5539 44.6837 64.1857 44.8814 62.958 45.452C62.0934 45.8905 61.3364 46.5148 60.7414 47.2802C60.1463 48.0455 59.7279 48.933 59.516 49.879C58.9925 52.1031 58.9355 54.4116 59.3486 56.6588C59.7617 58.9061 60.6358 61.0434 61.916 62.936C63.609 65.456 66.282 67.725 69.522 67.305C70.0472 67.2885 70.5464 67.0725 70.9179 66.7009C71.2895 66.3294 71.5055 65.8302 71.522 65.305C71.5191 64.7755 71.3075 64.2684 70.933 63.894C70.5586 63.5195 70.0515 63.3079 69.522 63.305C67.235 63.605 65.735 61.705 64.743 59.88C63.8688 58.3252 63.3174 56.61 63.122 54.837C62.847 53.0325 63.1505 51.1873 63.989 49.566C63.673 50.066 64.502 49.116 64.227 49.32C64.5067 49.0898 64.8418 48.9367 65.199 48.876C65.6214 48.7592 66.0658 48.7463 66.4942 48.8382C66.9227 48.9301 67.3227 49.1242 67.66 49.404C69.576 51.113 72.414 48.294 70.489 46.575H70.491Z" fill="#4DAC6E"/>
<path d="M128.2 49.4C128.519 49.1337 128.895 48.9449 129.3 48.8484C129.704 48.752 130.125 48.7505 130.53 48.844C130.934 48.895 131.315 49.0586 131.63 49.316C131.356 49.116 132.176 50.049 131.868 49.562C132.281 50.2058 132.55 50.9314 132.656 51.689C132.82 52.729 132.847 53.786 132.736 54.833C132.54 56.6059 131.988 58.321 131.114 59.876C130.122 61.705 128.624 63.598 126.335 63.301C125.805 63.3036 125.298 63.5152 124.924 63.8897C124.549 64.2642 124.338 64.7714 124.335 65.301C124.348 65.8273 124.563 66.3284 124.935 66.7006C125.308 67.0729 125.809 67.2878 126.335 67.301C131.613 67.986 134.851 62.283 136.17 58.017C137.352 54.194 137.305 48.254 133.57 45.806C132.304 45.0321 130.821 44.6884 129.343 44.8263C127.865 44.9642 126.471 45.5762 125.37 46.571C123.446 48.289 126.284 51.11 128.2 49.4Z" fill="#4DAC6E"/>
<path d="M124.586 62.593C124.264 64.0855 123.824 65.5504 123.272 66.974C123.079 67.482 122.914 67.822 122.686 68.389C122.486 68.896 122.822 68.115 122.65 68.477C122.586 68.609 122.527 68.743 122.464 68.877C121.545 70.7438 120.471 72.5304 119.254 74.218C116.454 78.179 112.635 82.503 107.722 83.657C105.222 84.246 106.277 88.104 108.785 87.515C114.579 86.153 119.038 81.315 122.395 76.675C123.723 74.8781 124.89 72.9681 125.883 70.967C126.09 70.538 126.275 70.102 126.459 69.667C126.676 69.148 126.313 70.009 126.541 69.477C126.691 69.13 126.841 68.782 126.978 68.431C127.602 66.8855 128.092 65.2893 128.443 63.66C128.967 61.148 125.112 60.075 124.586 62.597V62.593Z" fill="#4DAC6E"/>
<path d="M67.336 63.554C69.825 74.469 78.036 86.369 89.836 88.154C90.3472 88.2779 90.8864 88.2019 91.3436 87.9418C91.8008 87.6816 92.1414 87.2568 92.296 86.754C92.4331 86.2422 92.3631 85.6971 92.101 85.2366C91.839 84.7761 91.406 84.4375 90.896 84.294C80.396 82.709 73.402 72.186 71.196 62.494C70.624 59.986 66.767 61.047 67.339 63.558L67.336 63.554Z" fill="#4DAC6E"/>
<path d="M118.105 5.926C112.874 2.59922 106.908 0.604557 100.729 0.116446C94.5491 -0.371665 88.344 0.66164 82.656 3.126C78.0291 5.21501 73.8833 8.23675 70.4781 12.002C67.073 15.7673 64.4819 20.195 62.867 25.008C60.59 32.1478 60.4078 39.7908 62.342 47.031C62.975 49.525 66.834 48.468 66.199 45.968C63.54 35.495 65.437 24.1 72.521 15.74C75.2833 12.4454 78.6458 9.70489 82.43 7.664C87.7011 4.9857 93.5819 3.73482 99.4867 4.03589C105.392 4.33696 111.115 6.17947 116.086 9.38C118.254 10.78 120.261 7.321 118.105 5.926Z" fill="#4DAC6E"/>
<path d="M133.376 47.031C135.315 39.6165 135.084 31.8013 132.712 24.514C130.779 18.8302 127.438 13.7286 123 9.685C121.1 7.954 118.264 10.775 120.171 12.513C124.124 16.0633 127.112 20.558 128.856 25.577C131.036 32.1683 131.266 39.2488 129.52 45.968C128.911 48.468 132.767 49.535 133.376 47.031Z" fill="#4DAC6E"/>
<path d="M92.307 72.817C94.1362 73.7676 96.175 74.2431 98.236 74.2C100.414 74.2837 102.558 73.6359 104.325 72.36C104.7 71.9849 104.911 71.4763 104.911 70.946C104.911 70.4157 104.7 69.9071 104.325 69.532C103.942 69.1713 103.436 68.9703 102.91 68.9703C102.385 68.9703 101.879 69.1713 101.496 69.532C102.186 68.995 101.457 69.532 101.238 69.644C101.069 69.732 100.611 69.874 101.238 69.665C101.076 69.719 100.918 69.788 100.755 69.84C100.549 69.906 100.341 69.962 100.13 70.011C99.8845 70.0361 99.6416 70.0822 99.404 70.149C99.604 70.058 99.719 70.111 99.416 70.141C99.2827 70.1537 99.1493 70.1647 99.016 70.174C98.696 70.194 98.376 70.202 98.055 70.2C97.768 70.2 97.482 70.189 97.195 70.17C97.064 70.161 96.932 70.15 96.801 70.137C96.726 70.13 96.652 70.121 96.577 70.112C96.421 70.0933 96.4793 70.101 96.752 70.135C96.631 70.189 96.237 70.044 96.105 70.015C95.898 69.969 95.692 69.915 95.489 69.855C95.312 69.802 95.14 69.738 94.965 69.679C95.379 69.879 94.512 69.523 94.965 69.679C94.749 69.577 94.5353 69.4703 94.324 69.359C94.0972 69.2248 93.8461 69.1368 93.5852 69.0999C93.3243 69.0631 93.0586 69.0781 92.8036 69.1443C92.5485 69.2104 92.309 69.3263 92.0988 69.4853C91.8887 69.6443 91.712 69.8433 91.579 70.0708C91.446 70.2982 91.3593 70.5498 91.3238 70.8109C91.2883 71.072 91.3047 71.3376 91.3722 71.5923C91.4397 71.847 91.5568 72.0859 91.7169 72.2952C91.877 72.5045 92.0768 72.6802 92.305 72.812L92.307 72.817Z" fill="#4DAC6E"/>
<path d="M96.979 59.161C97.2395 60.1025 97.4481 61.0576 97.604 62.022L97.533 61.491C97.5517 61.6235 97.5551 61.7577 97.543 61.891L97.615 61.359C97.6059 61.4196 97.5912 61.4792 97.571 61.537L97.771 61.059C97.754 61.0991 97.7329 61.1373 97.708 61.173L98.021 60.768C97.9935 60.8027 97.962 60.8339 97.927 60.861L98.332 60.548C98.2595 60.5931 98.184 60.6332 98.106 60.668L98.583 60.468C98.4606 60.5204 98.3323 60.558 98.201 60.58L98.733 60.508C98.6141 60.522 98.4939 60.522 98.375 60.508L98.906 60.58C98.771 60.561 98.638 60.528 98.506 60.51C98.2473 60.4268 97.9711 60.4144 97.706 60.474C97.4412 60.4855 97.1843 60.5676 96.962 60.712C96.5041 60.9797 96.1713 61.4184 96.0369 61.9315C95.9024 62.4446 95.9773 62.9901 96.245 63.448C96.3716 63.6741 96.5427 63.8722 96.7482 64.0302C96.9536 64.1881 97.189 64.3027 97.44 64.367C97.795 64.415 98.14 64.504 98.501 64.52C99.0663 64.5218 99.6236 64.3862 100.125 64.125C100.451 63.9708 100.739 63.7468 100.968 63.4689C101.198 63.191 101.363 62.866 101.453 62.517C101.572 61.9655 101.568 61.3945 101.44 60.845C101.284 59.924 101.071 59.01 100.834 58.106C100.765 57.8524 100.646 57.6151 100.485 57.4074C100.323 57.1998 100.123 57.026 99.8943 56.896C99.6658 56.766 99.4139 56.6823 99.153 56.6497C98.8922 56.6171 98.6275 56.6362 98.374 56.706C97.8706 56.8464 97.4408 57.1756 97.174 57.625C96.9128 58.0942 96.8412 58.6457 96.974 59.166L96.979 59.161Z" fill="#4DAC6E"/>
<path d="M82.364 50.917C81.886 52.469 82.197 56.041 85.139 56.345C89.027 56.322 89.234 52.004 87.925 49.973C86.854 48.311 83.7 47.619 82.364 50.917Z" fill="#4DAC6E"/>
<path d="M113.5 50.917C113.977 52.47 113.666 56.041 110.724 56.345C106.836 56.322 106.629 52.003 107.938 49.973C109.009 48.311 112.16 47.619 113.5 50.917Z" fill="#4DAC6E"/>
<path d="M107.624 31.948C110.411 33.2148 112.91 35.0354 114.971 37.299C116.08 38.4385 117.101 39.6614 118.023 40.957C118.493 41.627 118.936 42.317 119.341 43.028C119.525 43.352 119.702 43.68 119.869 44.012C119.969 44.206 120.056 44.403 120.15 44.599C120.205 44.6935 120.249 44.7942 120.28 44.899C120.434 45.4021 120.775 45.8273 121.233 46.0875C121.69 46.3477 122.23 46.4234 122.741 46.299C123.251 46.1558 123.684 45.8171 123.946 45.3566C124.208 44.8961 124.278 44.3508 124.141 43.839C122.677 40.4198 120.585 37.3051 117.974 34.656C115.64 32.0662 112.808 29.973 109.647 28.501C109.185 28.2498 108.645 28.1842 108.137 28.3176C107.628 28.4511 107.19 28.7734 106.911 29.219C106.647 29.6778 106.575 30.222 106.709 30.7339C106.843 31.2459 107.173 31.6845 107.628 31.955L107.624 31.948Z" fill="#4DAC6E"/>
<path d="M75.1 45.531C77.4001 42.9787 79.8565 40.5717 82.455 38.324C83.6302 37.2918 84.8589 36.3221 86.136 35.419C86.7907 35.0495 87.4249 34.6449 88.036 34.207C88.7067 33.913 88.3487 33.732 86.962 33.664C87.015 33.817 87.0447 33.9771 87.05 34.139C87.0156 34.4712 87.0066 34.8055 87.023 35.139C87.0026 35.5888 87.0811 36.0376 87.2529 36.4539C87.4248 36.8701 87.6858 37.2435 88.0175 37.548C88.3493 37.8524 88.7438 38.0804 89.1733 38.2158C89.6027 38.3513 90.0566 38.3909 90.503 38.332C91.925 38.087 93.363 36.94 94.596 36.22C97.5932 34.3699 100.702 32.7067 103.904 31.24C104.359 30.97 104.69 30.5314 104.824 30.0192C104.959 29.5071 104.886 28.9626 104.621 28.504C104.344 28.0562 103.906 27.7319 103.396 27.5983C102.887 27.4646 102.346 27.5318 101.885 27.786C98.6829 29.253 95.5743 30.9161 92.577 32.766C91.891 33.166 91.207 33.566 90.518 33.966C90.344 34.066 90.1697 34.166 89.995 34.266C89.3177 34.554 89.6603 34.8463 91.023 35.143C91.0963 34.842 91.1069 34.5292 91.054 34.224C90.976 32.382 90.137 30.205 87.991 30.124C86.505 30.066 84.983 31.347 83.831 32.166C82.374 33.203 80.976 34.328 79.623 35.497C77.0274 37.7444 74.5731 40.15 72.274 42.7C70.554 44.607 73.374 47.445 75.103 45.528L75.1 45.531Z" fill="#4DAC6E"/>
<path d="M138.964 125.885C138.619 137.685 139.169 149.491 138.964 161.294C138.919 163.869 142.919 163.87 142.964 161.294C143.169 149.494 142.619 137.688 142.964 125.885C143.039 123.31 139.039 123.312 138.964 125.885Z" fill="#4DAC6E"/>
<path d="M120.837 97.313C127.326 99.8 134.107 101.748 140.358 104.813C143.306 106.135 145.989 107.984 148.273 110.27C150.991 113.378 152.912 117.101 153.868 121.117C156.255 129.842 158.485 138.663 160.283 147.53C161.055 151.337 161.716 155.163 162.267 159.01C162.986 162.977 163.399 166.994 163.504 171.024C163.45 175.368 162.604 180.048 159.718 183.461C158.196 185.284 156.297 186.756 154.152 187.776C152.007 188.796 149.667 189.339 147.292 189.369C144.72 189.405 144.713 193.406 147.292 193.369C152.183 193.346 156.903 191.567 160.592 188.355C163.771 185.423 165.959 181.574 166.852 177.342C167.794 172.842 167.461 168.459 166.918 163.942C166.402 159.657 165.793 155.382 165.035 151.133C163.422 142.096 161.135 133.196 158.826 124.318C157.626 119.701 156.493 115.076 153.878 111.009C151.587 107.577 148.507 104.745 144.896 102.75C137.801 98.55 129.564 96.388 121.904 93.45C121.392 93.3134 120.847 93.3837 120.387 93.6457C119.927 93.9077 119.588 94.3403 119.444 94.85C119.315 95.3614 119.389 95.9029 119.65 96.3613C119.911 96.8198 120.338 97.1596 120.844 97.31L120.837 97.313Z" fill="#4DAC6E"/>
<path d="M39.6 134.416C40.553 130.487 41.464 126.522 42.592 122.639C43.4392 119.309 44.9194 116.173 46.952 113.403C48.745 111.333 50.9309 109.64 53.383 108.421C55.916 106.968 58.542 105.689 61.16 104.398C64.56 102.721 67.979 101.025 71.513 99.643C72.0165 99.4892 72.4421 99.1486 72.7025 98.6909C72.9628 98.2333 73.0381 97.6934 72.913 97.182C72.7693 96.6719 72.4305 96.2389 71.9698 95.9769C71.5092 95.7149 70.9639 95.6448 70.452 95.782C64.1026 98.2884 57.9368 101.237 52 104.606C49.3933 105.9 47.0075 107.599 44.931 109.638C42.4158 112.513 40.5264 115.879 39.383 119.524C37.846 124.014 36.862 128.743 35.744 133.352C35.137 135.852 38.993 136.92 39.601 134.416H39.6Z" fill="#4DAC6E"/>
<path d="M147.292 189.37C136.214 189.632 125.143 188.592 114.307 186.27C112.318 185.853 110.337 185.397 108.371 184.883C107.843 184.745 107.732 184.5 108.061 185.268C108.461 186.212 108.225 185.713 108.361 185.335C108.441 185.013 108.49 184.685 108.51 184.354C108.647 183.432 108.775 182.508 108.901 181.584C109.468 177.396 109.972 173.199 110.461 169C110.714 166.832 110.963 164.663 111.207 162.493L111.507 159.855L111.627 158.806C111.645 158.651 111.657 158.494 111.681 158.34L111.711 158.079C111.733 157.819 111.744 157.859 111.744 158.198L111.027 158.916L110.845 158.884L111.337 158.951L112.317 159.086L114.265 159.356C115.548 159.534 116.83 159.715 118.112 159.898C120.695 160.266 123.276 160.641 125.856 161.024C130.718 161.743 135.577 162.476 140.434 163.224C140.945 163.348 141.485 163.272 141.942 163.012C142.4 162.752 142.74 162.327 142.895 161.824C143.032 161.312 142.962 160.767 142.7 160.307C142.438 159.846 142.005 159.508 141.495 159.364C133.095 158.078 124.703 156.807 116.295 155.628C115.242 155.48 114.189 155.334 113.134 155.189C112.025 154.887 110.862 154.846 109.734 155.067C108.08 155.629 107.815 157.192 107.64 158.704C107.363 161.104 107.095 163.504 106.82 165.904C106.156 171.704 105.511 177.513 104.655 183.289C104.443 184.716 103.97 186.27 104.987 187.504C105.957 188.681 107.766 188.865 109.177 189.204C112.377 189.982 115.618 190.633 118.869 191.187C128.25 192.85 137.772 193.581 147.296 193.369C149.864 193.294 149.875 189.294 147.296 189.369L147.292 189.37Z" fill="#4DAC6E"/>
<path d="M76.091 158.891C77.0086 158.347 77.9919 157.922 79.017 157.626C80.262 157.226 81.445 156.659 82.694 156.273C85.639 155.361 88.116 155.864 90.872 157.101C95.923 159.368 101.436 163.525 107.253 162.093C109.753 161.478 108.693 157.619 106.189 158.236C103.394 158.924 100.636 157.436 98.211 156.206C95.5092 154.732 92.7061 153.453 89.823 152.376C87.0109 151.492 83.9866 151.554 81.213 152.552C79.95 152.981 78.732 153.514 77.461 153.926C76.2736 154.289 75.1354 154.796 74.072 155.437C71.892 156.796 73.898 160.258 76.091 158.891Z" fill="#4DAC6E"/>
<path d="M78.482 161.837C77.336 162.42 76.1893 163 75.042 163.577C74.7019 163.775 74.428 164.07 74.2544 164.423C74.0809 164.776 74.0154 165.173 74.0664 165.563C74.1173 165.954 74.2823 166.32 74.5407 166.617C74.7991 166.914 75.1394 167.129 75.519 167.233C76.0402 167.356 76.5883 167.285 77.061 167.033C78.2077 166.454 79.3543 165.874 80.501 165.293C80.8407 165.094 81.1144 164.8 81.2876 164.447C81.4609 164.094 81.5261 163.697 81.4751 163.307C81.424 162.917 81.2591 162.55 81.0008 162.253C80.7425 161.957 80.4024 161.742 80.023 161.638C79.5021 161.514 78.954 161.584 78.482 161.837Z" fill="#4DAC6E"/>
<path d="M83.3 167.087C80.8 168.336 78.31 169.601 75.91 171.027C75.452 171.295 75.1191 171.733 74.9845 172.247C74.8499 172.76 74.9248 173.305 75.1925 173.764C75.4602 174.222 75.899 174.554 76.4121 174.689C76.9253 174.824 77.471 174.749 77.929 174.481C80.329 173.055 82.822 171.79 85.319 170.541C85.7743 170.271 86.1048 169.832 86.239 169.32C86.3732 168.808 86.3003 168.264 86.036 167.805C85.7597 167.357 85.3212 167.032 84.8118 166.898C84.3023 166.764 83.7609 166.832 83.3 167.087Z" fill="#4DAC6E"/>
<path d="M93.923 181.53C98.1691 182.382 102.537 182.438 106.803 181.693C107.314 181.55 107.747 181.211 108.009 180.75C108.271 180.29 108.341 179.744 108.203 179.232C108.05 178.728 107.71 178.301 107.252 178.041C106.794 177.78 106.253 177.705 105.742 177.832C104.807 178.012 103.861 178.13 102.911 178.184C101.978 178.245 101.044 178.262 100.111 178.236C99.211 178.211 98.311 178.147 97.42 178.049L97.02 178.002C96.7973 177.973 96.7523 177.968 96.885 177.986C97.0177 178.004 96.9733 177.997 96.752 177.966L96.352 177.907C95.897 177.836 95.443 177.755 94.99 177.67C94.4785 177.529 93.932 177.597 93.4707 177.859C93.0093 178.121 92.671 178.556 92.53 179.067C92.389 179.578 92.457 180.125 92.719 180.586C92.981 181.048 93.4155 181.386 93.927 181.527L93.923 181.53Z" fill="#4DAC6E"/>
<path d="M84.687 174.847C83.595 175.955 82.481 177.041 81.404 178.164C80.5893 178.922 79.8431 179.751 79.174 180.64C78.6143 181.543 78.3481 182.598 78.412 183.659C78.4435 184.219 78.5892 184.766 78.8401 185.267C79.091 185.768 79.4418 186.212 79.871 186.573C80.3001 186.933 80.7985 187.202 81.3354 187.362C81.8724 187.523 82.4365 187.572 82.993 187.506C85.073 187.306 86.832 186.006 88.573 184.95C89.644 184.299 90.71 183.639 91.801 183.023C92.327 182.723 92.858 182.439 93.401 182.171C93.985 181.882 94.401 181.696 94.862 181.518C95.3657 181.365 95.7916 181.024 96.0521 180.567C96.3125 180.109 96.3876 179.569 96.262 179.058C96.1181 178.548 95.7793 178.116 95.319 177.854C94.8587 177.592 94.3137 177.521 93.802 177.658C91.4589 178.629 89.2072 179.808 87.074 181.18C86.018 181.823 84.961 182.465 83.88 183.066C83.819 183.1 83.132 183.447 83.137 183.466C83.485 183.326 83.5573 183.293 83.354 183.366C83.281 183.392 83.208 183.415 83.134 183.436C82.996 183.475 82.434 183.536 82.998 183.495C82.798 183.509 82.598 183.509 82.398 183.509C82.672 183.555 82.6953 183.555 82.468 183.509C82.2553 183.442 82.266 183.456 82.5 183.551C82.312 183.436 82.312 183.452 82.5 183.597C82.348 183.437 82.334 183.441 82.46 183.608C82.3493 183.408 82.345 183.416 82.447 183.631C82.396 183.404 82.388 183.408 82.424 183.646C82.413 183.526 82.504 182.851 82.411 183.276C82.437 183.16 82.685 182.516 82.465 182.953C82.532 182.819 82.79 182.48 82.44 182.905C82.845 182.414 83.312 181.961 83.75 181.498C84.984 180.198 86.268 178.941 87.527 177.662C87.8913 177.285 88.0929 176.78 88.0883 176.255C88.0838 175.731 87.8735 175.229 87.5026 174.858C87.1318 174.488 86.6302 174.277 86.1058 174.273C85.5814 174.268 85.0762 174.47 84.699 174.834L84.687 174.847Z" fill="#4DAC6E"/>
<path d="M49.429 190.943C57.766 192.496 66.106 194.043 74.472 195.431C76.333 195.74 78.172 196.12 79.707 194.715C81.307 193.261 81.062 191.415 80.841 189.484C80.351 185.197 79.8597 180.909 79.367 176.622C78.315 167.474 77.2293 158.333 76.11 149.2C75.866 147.228 75.617 145.257 75.363 143.287C75.115 141.375 74.963 139.394 73.076 138.348C71.6661 137.778 70.1765 137.43 68.66 137.316C66.87 136.992 65.08 136.671 63.29 136.352C45.812 133.237 28.314 130.234 10.817 127.231L6.325 126.462C4.518 126.153 2.773 125.856 1.284 127.213C-0.032003 128.413 -0.130003 129.955 0.0929969 131.6C0.233997 132.636 0.357997 133.558 0.468997 134.388C1.24833 140.193 2.03166 145.997 2.819 151.8C3.707 158.277 4.612 164.753 5.59 171.218C5.99 173.85 6.398 176.481 6.846 179.104C7.125 180.736 7.684 182.165 9.273 182.932C10.8485 183.508 12.4859 183.899 14.152 184.095C16.2687 184.532 18.3877 184.959 20.509 185.377C23.024 185.877 24.1 182.02 21.573 181.52C19.581 181.125 17.591 180.725 15.603 180.32C14.139 180.096 12.6887 179.79 11.259 179.403C10.797 179.251 10.914 179.224 10.802 178.616C10.702 178.068 10.613 177.516 10.522 176.966C10.322 175.775 10.1297 174.584 9.945 173.391C9.045 167.682 8.235 161.96 7.436 156.237C6.637 150.514 5.864 144.785 5.1 139.06C4.79266 136.769 4.48533 134.478 4.178 132.187L4 130.9C3.976 130.72 3.938 130.538 3.926 130.357C3.911 130.127 3.993 130.181 3.898 130.246C4.47 129.854 6.065 130.455 6.756 130.573C22.464 133.261 38.1663 135.979 53.863 138.728C57.751 139.411 61.6377 140.101 65.523 140.798C66.923 141.049 68.323 141.303 69.723 141.558C70.096 141.626 70.917 141.603 71.177 141.889C71.358 142.526 71.4466 143.186 71.44 143.848C72.481 151.925 73.44 160.013 74.381 168.102C74.877 172.353 75.369 176.604 75.857 180.855C76.0783 182.775 76.2983 184.695 76.517 186.616C76.6177 187.506 76.7177 188.396 76.817 189.287C77.0248 190.083 77.1117 190.905 77.075 191.727C77.022 191.832 76.592 191.75 76.19 191.684C75.396 191.554 74.6023 191.421 73.809 191.284C72.135 191.001 70.4623 190.713 68.791 190.418C64.787 189.716 60.787 188.996 56.791 188.258C54.691 187.873 52.591 187.476 50.491 187.085C47.975 186.616 46.896 190.47 49.427 190.942L49.429 190.943Z" fill="#4DAC6E"/>
<path d="M79.988 194.528C81.088 193.615 82.105 192.606 83.132 191.618C84.7907 190.022 86.436 188.412 88.068 186.788C88.4323 186.411 88.6339 185.906 88.6293 185.381C88.6248 184.857 88.4145 184.355 88.0436 183.984C87.6728 183.614 87.1712 183.403 86.6468 183.399C86.1224 183.394 85.6172 183.596 85.24 183.96C83.6027 185.579 81.9573 187.189 80.304 188.79C79.277 189.778 78.256 190.79 77.16 191.7C76.7868 192.076 76.5773 192.584 76.5773 193.114C76.5773 193.644 76.7868 194.152 77.16 194.528C77.5416 194.89 78.0477 195.093 78.574 195.093C79.1003 195.093 79.6065 194.89 79.988 194.528Z" fill="#4DAC6E"/>
<path d="M45.319 179.543C46.045 178.969 47.074 179.716 47.442 180.149C48.042 180.861 47.914 182.494 47.931 183.677C47.955 185.445 48.046 187.219 47.963 188.986C47.9727 189.526 47.8992 190.064 47.745 190.581C47.7196 190.619 47.6912 190.655 47.66 190.689C47.4858 190.866 47.2942 191.025 47.088 191.164C46.2217 191.766 45.1886 192.08 44.134 192.064C44.666 192.092 42.908 192.097 43.324 192.057C43.624 192.028 43.075 192.072 42.969 192.079C42.522 192.106 42.069 192.105 41.624 192.096C39.2945 192.023 36.9719 191.804 34.67 191.439C32.5857 191.236 30.5267 190.827 28.523 190.218C28.0113 190.082 27.4667 190.153 27.0066 190.415C26.5465 190.677 26.2076 191.109 26.063 191.618C25.933 192.129 26.0063 192.671 26.2673 193.13C26.5283 193.589 26.9569 193.929 27.463 194.078C30.0267 194.84 32.6637 195.329 35.33 195.537C38.2761 196.078 41.2824 196.212 44.265 195.937H43.2C44.4796 196.127 45.7858 196.024 47.0196 195.635C48.2535 195.246 49.3827 194.582 50.322 193.692C52.359 191.757 52.022 188.492 51.974 185.927C51.922 183.083 52.428 179.573 50.274 177.327C49.3081 176.238 47.9574 175.567 46.5063 175.454C45.0552 175.341 43.6169 175.795 42.494 176.721C42.1217 177.097 41.9129 177.606 41.9129 178.135C41.9129 178.664 42.1217 179.173 42.494 179.549C42.875 179.913 43.3814 180.115 43.908 180.115C44.4346 180.115 44.941 179.913 45.322 179.549L45.319 179.543Z" fill="#4DAC6E"/>
<path d="M45.244 186.369C45.3667 183.493 45.525 180.619 45.719 177.748C45.881 175.373 45.819 172.825 44.064 170.993C43.0451 170.004 41.7016 169.418 40.2832 169.344C38.8647 169.27 37.4678 169.714 36.352 170.593C34.815 171.929 34.628 173.812 34.376 175.702C33.976 178.696 33.792 181.702 33.552 184.716C33.5564 185.245 33.7686 185.751 34.1427 186.125C34.5168 186.499 35.0229 186.712 35.552 186.716C36.0792 186.706 36.582 186.492 36.9549 186.119C37.3278 185.746 37.5418 185.243 37.552 184.716C37.729 182.5 37.867 180.281 38.096 178.069C38.1925 176.884 38.3487 175.704 38.564 174.534C38.591 174.4 38.628 174.27 38.664 174.134C38.764 173.734 38.815 174.117 38.613 174.203C38.674 174.177 38.765 173.895 38.8 173.834C38.937 173.602 39.1 173.522 38.822 173.769C38.946 173.659 39.063 173.531 39.184 173.417C38.915 173.672 39.084 173.517 39.301 173.396C39.518 173.275 38.968 173.479 39.244 173.429C39.378 173.404 39.51 173.356 39.644 173.329C39.222 173.412 39.944 173.344 40.059 173.346C40.051 173.346 40.398 173.379 40.223 173.354C40.023 173.327 40.431 173.401 40.471 173.411C40.606 173.445 41.083 173.66 40.778 173.495C40.878 173.55 40.978 173.611 41.078 173.666C41.494 173.894 40.954 173.528 41.125 173.708C41.199 173.785 41.274 173.862 41.347 173.939C41.542 174.144 41.185 173.667 41.32 173.914C41.409 174.078 41.506 174.233 41.587 174.401C41.387 173.993 41.618 174.545 41.655 174.682C41.683 174.787 41.707 174.893 41.73 174.999C41.742 175.056 41.813 175.512 41.774 175.22C41.74 174.964 41.795 175.52 41.799 175.609C41.8097 175.826 41.813 176.042 41.809 176.259C41.801 176.796 41.751 177.332 41.715 177.867C41.5223 180.7 41.3667 183.533 41.248 186.367C41.248 186.897 41.4587 187.406 41.8338 187.781C42.2089 188.156 42.7176 188.367 43.248 188.367C43.7784 188.367 44.2871 188.156 44.6622 187.781C45.0373 187.406 45.248 186.897 45.248 186.367L45.244 186.369Z" fill="#4DAC6E"/>
<path d="M38.8 173.543C38.9753 171.507 38.3895 169.478 37.156 167.848C36.4629 167.05 35.5622 166.459 34.5537 166.141C33.5453 165.823 32.4686 165.791 31.443 166.048C30.5936 166.322 29.8144 166.778 29.1602 167.385C28.506 167.993 27.9925 168.735 27.656 169.562C27.0485 171.329 26.7499 173.187 26.773 175.055C26.59 177.661 26.479 180.272 26.312 182.879C26.312 183.409 26.5227 183.918 26.8978 184.293C27.2729 184.668 27.7816 184.879 28.312 184.879C28.8424 184.879 29.3511 184.668 29.7262 184.293C30.1013 183.918 30.312 183.409 30.312 182.879C30.469 180.424 30.578 177.967 30.742 175.512C30.812 174.452 30.896 173.392 31.003 172.335L31.051 171.877C31.091 171.529 31.0847 171.571 31.032 172.004C31.0619 171.903 31.086 171.801 31.104 171.697C31.148 171.538 31.204 171.385 31.261 171.228C31.087 171.749 31.261 171.253 31.322 171.128C31.4033 170.971 31.492 170.818 31.588 170.669C31.645 170.582 31.704 170.496 31.766 170.412C31.613 170.606 31.61 170.618 31.754 170.446C31.871 170.336 31.983 170.218 32.098 170.106C31.774 170.42 32.258 170.016 32.362 169.952C32.717 169.73 32.083 169.985 32.506 169.904C32.734 169.857 32.7297 169.85 32.493 169.881C32.6163 169.869 32.7402 169.865 32.864 169.868C33.245 169.849 32.773 169.798 33.126 169.902C33.22 169.93 33.885 170.202 33.536 170.015C33.6 170.049 34.091 170.368 33.924 170.236C33.757 170.104 34.175 170.499 34.224 170.548C33.934 170.233 34.347 170.755 34.398 170.848C34.43 170.905 34.62 171.396 34.488 171.016C34.5694 171.247 34.6388 171.483 34.696 171.721C34.717 171.812 34.806 172.294 34.756 171.942C34.8212 172.473 34.8376 173.008 34.805 173.542C34.805 174.072 35.0157 174.581 35.3908 174.956C35.7659 175.331 36.2746 175.542 36.805 175.542C37.3354 175.542 37.8441 175.331 38.2192 174.956C38.5943 174.581 38.805 174.072 38.805 173.542L38.8 173.543Z" fill="#4DAC6E"/>
<path d="M30.923 171.933C30.341 168.354 25.942 167.233 23.114 168.879C19.993 170.701 19.801 174.871 19.425 178.101C19.032 181.477 18.595 184.955 20.183 188.089C20.9303 189.525 21.9601 190.796 23.2106 191.824C24.4611 192.853 25.9065 193.618 27.46 194.074C29.941 194.774 31 190.919 28.523 190.217C26.6577 189.66 25.0623 188.437 24.041 186.78C22.808 184.802 23.041 182.798 23.199 180.559C23.288 179.297 23.407 178.035 23.609 176.786C23.721 176.096 23.851 175.408 24.004 174.726C24.0843 174.087 24.2442 173.46 24.48 172.861C24.359 173.087 24.804 172.551 24.88 172.495C25.1653 172.263 25.5086 172.113 25.873 172.061C26.0142 172.036 26.159 172.042 26.2981 172.077C26.4372 172.111 26.5674 172.175 26.6804 172.263C26.7935 172.351 26.8868 172.462 26.9544 172.588C27.022 172.715 27.0624 172.854 27.073 172.997C27.2167 173.507 27.5554 173.94 28.0158 174.202C28.4762 174.464 29.0212 174.534 29.533 174.397C30.0382 174.246 30.4657 173.906 30.7264 173.447C30.9872 172.989 31.0612 172.448 30.933 171.936L30.923 171.933Z" fill="#4DAC6E"/>
<circle cx="108.5" cy="73.5" r="1.5" fill="#4DAC6E"/>
</g>
<defs>
<clipPath id="clip0_3_3">
<rect width="167.442" height="446.199" fill="white"/>
</clipPath>
</defs>
</svg>
