<svg width="168" height="447" viewBox="0 0 168 447" fill="none" xmlns="http://www.w3.org/2000/svg">
<path d="M79.977 37.85C77.7749 39.8297 75.6761 41.9215 73.689 44.117L69.077 47.99C68.6391 47.586 68.1254 47.2729 67.5656 47.0686C67.0059 46.8644 66.4112 46.7731 65.816 46.8C65.3391 46.8124 64.866 46.8881 64.409 47.025C63.3642 43.3143 62.8891 39.4664 63 35.613C63.1446 30.3119 64.5068 25.1151 66.9813 20.4247C69.4557 15.7343 72.9761 11.6761 77.27 8.564C83.2283 4.18713 90.4559 1.88167 97.848 2C105.568 1.9047 113.094 4.41842 119.207 9.134C125.659 14.006 132.144 22.379 132.707 35.615C132.844 39.4533 132.38 43.2895 131.33 46.984C130.912 46.8728 130.482 46.8104 130.05 46.798C129.455 46.7715 128.86 46.8634 128.3 47.0683C127.74 47.2733 127.227 47.5872 126.789 47.992L122.212 44.366C120.734 40.647 117.398 36.539 113.912 33.544C112.352 32.1468 110.567 31.0239 108.632 30.223L102.898 29.523C99.032 31.152 93.579 34.574 90.519 36.274C90.3452 36.3593 90.1512 36.3948 89.9584 36.3765C89.7657 36.3582 89.5818 36.2868 89.4272 36.1702C89.2726 36.0536 89.1533 35.8965 89.0827 35.7162C89.012 35.5359 88.9928 35.3396 89.027 35.149C89.1069 34.4762 89.0621 33.7945 88.895 33.138C88.695 32.298 88.045 31.938 87.543 32.205C84.8146 33.7929 82.2762 35.6868 79.977 37.85Z" fill="#4DAC6E" fill-opacity="0.5"/>
</svg>
