<svg width="168" height="447" viewBox="0 0 168 447" fill="none" xmlns="http://www.w3.org/2000/svg">
<path d="M76.614 157.031C76.414 157.141 76.214 157.263 76 157.4C77.079 166.39 78.248 176.476 79.207 184.866H81.641C82.592 186.254 84.591 185.691 85.127 185.403C88.871 183.394 91.866 181.103 95.275 179.816C99.1988 180.638 103.244 180.7 107.191 180L108.104 179.662C108.942 173.262 109.851 165.131 110.39 160.396H107.639C104.282 161.342 100.839 159.555 97.729 157.97C95.8943 157.037 94.0337 156.153 92.147 155.319C91.168 154.857 90.1474 154.489 89.099 154.219C86.5088 153.728 83.8294 154.067 81.444 155.19C79.458 156.043 78.197 156.159 76.614 157.031Z" fill="#4DAC6E" fill-opacity="0.5"/>
</svg>
