<svg width="168" height="447" viewBox="0 0 168 447" fill="none" xmlns="http://www.w3.org/2000/svg">
<path d="M72.2114 140.536C72.1543 140.09 71.9569 139.673 71.6478 139.346C71.3386 139.02 70.9337 138.8 70.4914 138.718C58.3214 136.459 17.8334 129.476 3.49141 127.031C3.16166 126.974 2.82318 126.996 2.50339 127.094C2.18361 127.193 1.8915 127.365 1.65076 127.597C1.41001 127.83 1.2274 128.116 1.11771 128.432C1.00802 128.748 0.974343 129.085 1.01941 129.417C2.28541 138.738 5.87141 166.307 8.01241 178.454C8.08426 178.869 8.27854 179.254 8.57036 179.559C8.86219 179.863 9.23826 180.073 9.65041 180.163C12.0594 180.692 15.7114 181.444 20.1084 182.322V182.299C20.1558 178.551 20.6619 174.824 21.6154 171.199C21.9561 170.465 22.5174 169.856 23.2209 169.457C23.9244 169.058 24.735 168.889 25.5394 168.973C26.1534 169.034 26.7309 169.293 27.1846 169.711C27.6382 170.129 27.9432 170.684 28.0534 171.291C28.1004 170.842 28.1374 170.514 28.1374 170.514C28.2614 169.402 29.5734 166.387 32.3154 166.767C35.0574 167.147 35.9654 169.587 35.8664 172.273C36.1154 171.534 36.6333 170.917 37.3171 170.543C38.0009 170.169 38.8004 170.067 39.5564 170.256C43.4764 170.774 42.9944 175.37 42.6384 177.364C43.1178 176.794 43.7811 176.41 44.5138 176.278C45.2464 176.146 46.0022 176.274 46.6504 176.64C48.1414 177.508 48.9944 178.506 48.9854 181.075C48.9774 183.556 49.1094 186.015 49.0204 187.883C59.3884 189.816 69.3144 191.601 75.6694 192.63C75.994 192.683 76.3264 192.66 76.6406 192.562C76.9547 192.465 77.242 192.296 77.4799 192.069C77.7178 191.842 77.8998 191.563 78.0117 191.254C78.1235 190.945 78.1621 190.614 78.1244 190.287C76.5374 176.319 73.8404 152.887 72.2114 140.536Z" fill="#4DAC6E" fill-opacity="0.5"/>
</svg>
